# xmcd
# 
# Track frame offsets:
#     150
#     85851
#     115279
#     171572
# 
# Disc length: 3210
# 
# Revision: 0
# Processed by: cddbd v1.5.2PL0 Copyright (c) Steve Scherf et al.
# Submitted via: fre:ac v1.0.17
# 
DISCID=2f0c8804
DTITLE=Deep Purple - The Royal Philharmonic Orchestra
DYEAR=0
DGENRE=
TTITLE0=First Movement: Moderato - Allegro
TTITLE1=Second Movement: Andante Part 1
TTITLE2=Second Movement: Andante Conclusion
TTITLE3=Third Movement: Vivace - Presto
EXTD=
EXTT0=
EXTT1=
EXTT2=
EXTT3=
PLAYORDER=
